<svg width="142" height="33" viewBox="0 0 142 33" fill="none" xmlns="http://www.w3.org/2000/svg">
<g clip-path="url(#clip0_230_7174)">
<g clip-path="url(#clip1_230_7174)">
<path d="M4.73125 15.7665L7.04804 17.9732C5.82698 19.2552 5.87668 21.2737 7.15937 22.4954C8.44205 23.7171 10.4606 23.6684 11.6816 22.3864L13.9984 24.593C11.5657 27.1471 7.51927 27.2543 4.9539 24.8109C2.39799 22.3576 2.29859 18.3207 4.73125 15.7665Z" fill="#007CF8"/>
<path d="M18.3988 19.944L13.9878 24.5752L11.671 22.3686L16.082 17.7374L18.3988 19.944Z" fill="#007CF8"/>
<path d="M11.4483 13.3371L7.03735 17.9683L4.72058 15.7617L9.13156 11.1305L11.4483 13.3371Z" fill="#007CF8"/>
<path d="M21.3945 7.52824L18.3291 8.43721C17.8311 6.74994 16.0496 5.77332 14.3625 6.27035C12.6755 6.76737 11.6997 8.5484 12.1976 10.2357L9.13215 11.1446C8.13585 7.75068 10.0685 4.20841 13.462 3.21389C16.8455 2.20989 20.4082 4.14377 21.3945 7.52824Z" fill="#007CF8"/>
<path d="M10.9102 17.2649L9.10303 11.1274L12.1713 10.2255L13.9785 16.3629L10.9102 17.2649Z" fill="#007CF8"/>
<path d="M20.1082 14.5576L18.301 8.42017L21.3693 7.51817L23.1765 13.6556L20.1082 14.5576Z" fill="#007CF8"/>
<path d="M23.2064 13.6703L22.4478 16.7764C24.1573 17.1916 25.2195 18.9235 24.8051 20.6328C24.3908 22.342 22.6594 23.4033 20.9499 22.9881L20.1913 26.0942C23.6297 26.9241 27.0737 24.8213 27.9018 21.3834C28.7494 17.9451 26.6349 14.4907 23.2064 13.6703Z" fill="#007CF8"/>
<path d="M13.9545 24.5901L14.7061 21.4814L21.0085 23.0081L20.2569 26.1167L13.9545 24.5901Z" fill="#007CF8"/>
<path d="M16.1962 15.2724L16.9478 12.1638L23.4225 13.7322L22.671 16.8409L16.1962 15.2724Z" fill="#007CF8"/>
</g>
</g>
<path d="M45.9942 23.1006C44.9418 23.1006 44.0156 22.9991 43.2155 22.796C42.4216 22.5929 41.6831 22.3406 41 22.039V18.7711H41.3139C42.0031 19.3558 42.7632 19.805 43.594 20.1189C44.4248 20.4328 45.231 20.5897 46.0126 20.5897C46.2095 20.5897 46.468 20.5682 46.788 20.5251C47.1142 20.482 47.3758 20.4143 47.5727 20.322C47.8127 20.2174 48.0158 20.0728 48.182 19.8881C48.3481 19.6973 48.4312 19.4481 48.4312 19.1404C48.4312 18.7958 48.2958 18.5157 48.025 18.3003C47.7543 18.0849 47.4312 17.928 47.0558 17.8295C46.588 17.7065 46.0865 17.5895 45.551 17.4788C45.0218 17.368 44.5264 17.2326 44.0648 17.0726C43.0001 16.6972 42.237 16.1925 41.7754 15.5586C41.3139 14.9248 41.0831 14.1309 41.0831 13.177C41.0831 11.8907 41.6277 10.8507 42.717 10.0568C43.8063 9.25671 45.1664 8.85669 46.7973 8.85669C47.6158 8.85669 48.4281 8.93977 49.2343 9.10594C50.0467 9.2721 50.7729 9.49673 51.4129 9.77982V12.9185H51.1083C50.5975 12.4815 49.9729 12.1123 49.2343 11.8107C48.502 11.5092 47.7481 11.3584 46.9727 11.3584C46.6711 11.3584 46.4003 11.3799 46.1603 11.423C45.9203 11.4661 45.668 11.5492 45.4033 11.6722C45.1879 11.7707 45.0002 11.9184 44.8402 12.1153C44.6864 12.3061 44.6095 12.5215 44.6095 12.7615C44.6095 13.1123 44.7325 13.3924 44.9787 13.6016C45.231 13.8047 45.7141 13.9893 46.428 14.1555C46.8896 14.2601 47.3327 14.3616 47.7573 14.4601C48.1881 14.5586 48.6466 14.694 49.1328 14.8663C50.0867 15.2109 50.7944 15.6756 51.256 16.2602C51.7237 16.8387 51.9576 17.6049 51.9576 18.5588C51.9576 19.9251 51.4191 21.0236 50.3421 21.8544C49.2713 22.6852 47.822 23.1006 45.9942 23.1006Z" fill="#090909"/>
<path d="M57.5149 23.0545C56.1978 23.0545 55.2378 22.7837 54.6347 22.2421C54.0377 21.7005 53.7392 20.8143 53.7392 19.5835V14.737H52.5022V12.4846H53.7392V9.52135H56.9702V12.4846H60.0812V14.737H56.9702V18.4111C56.9702 18.7742 56.9733 19.0912 56.9794 19.3619C56.9856 19.6327 57.0348 19.8758 57.1271 20.0912C57.2133 20.3066 57.3641 20.4789 57.5795 20.6082C57.801 20.7313 58.121 20.7928 58.5395 20.7928C58.7118 20.7928 58.9365 20.7559 59.2134 20.682C59.4965 20.6082 59.6934 20.5405 59.8042 20.4789H60.0812V22.7591C59.7304 22.8514 59.358 22.9222 58.9642 22.9714C58.5703 23.0268 58.0872 23.0545 57.5149 23.0545Z" fill="#090909"/>
<path d="M71.3619 17.6726C71.3619 19.3773 70.8941 20.722 69.9587 21.7067C69.0294 22.6852 67.7124 23.1745 66.0077 23.1745C64.3153 23.1745 62.9983 22.6852 62.0567 21.7067C61.1212 20.722 60.6535 19.3773 60.6535 17.6726C60.6535 15.9494 61.1212 14.6017 62.0567 13.6293C62.9983 12.6508 64.3153 12.1615 66.0077 12.1615C67.7062 12.1615 69.0232 12.6538 69.9587 13.6385C70.8941 14.617 71.3619 15.9617 71.3619 17.6726ZM68.0478 17.6911C68.0478 17.0757 67.9955 16.5649 67.8909 16.1587C67.7924 15.7463 67.6539 15.4171 67.4755 15.1709C67.2847 14.9124 67.0693 14.734 66.8293 14.6355C66.5893 14.5309 66.3154 14.4786 66.0077 14.4786C65.7184 14.4786 65.4569 14.5247 65.223 14.617C64.9892 14.7032 64.7738 14.8724 64.5768 15.1248C64.3922 15.3648 64.2445 15.694 64.1337 16.1125C64.0229 16.531 63.9676 17.0572 63.9676 17.6911C63.9676 18.325 64.0199 18.8388 64.1245 19.2327C64.2291 19.6204 64.3645 19.9312 64.5307 20.1651C64.703 20.4051 64.9184 20.5805 65.1769 20.6913C65.4353 20.802 65.7215 20.8574 66.0354 20.8574C66.2938 20.8574 66.5554 20.802 66.82 20.6913C67.0908 20.5805 67.3062 20.4143 67.4662 20.1928C67.657 19.9281 67.8016 19.6112 67.9001 19.2419C67.9986 18.8665 68.0478 18.3496 68.0478 17.6911Z" fill="#090909"/>
<path d="M80.0393 15.5402H79.7716C79.6485 15.4971 79.47 15.4663 79.2362 15.4479C79.0023 15.4232 78.7438 15.4109 78.4607 15.4109C78.1223 15.4109 77.7653 15.4602 77.3899 15.5586C77.0207 15.6571 76.6606 15.774 76.3098 15.9094V22.8514H73.0789V12.4846H76.3098V13.9708C76.4575 13.8355 76.6606 13.6662 76.9191 13.4631C77.1837 13.2539 77.4238 13.0877 77.6392 12.9646C77.873 12.8231 78.1438 12.7031 78.4515 12.6046C78.7654 12.5 79.0608 12.4477 79.3377 12.4477C79.4423 12.4477 79.5593 12.4508 79.6885 12.4569C79.8177 12.4631 79.9347 12.4723 80.0393 12.4846V15.5402Z" fill="#090909"/>
<path d="M86.5843 23.1283C84.6273 23.1283 83.1256 22.6606 82.0794 21.7252C81.0394 20.7897 80.5193 19.4573 80.5193 17.728C80.5193 16.0356 81.0055 14.6847 81.9779 13.6754C82.9502 12.6662 84.3103 12.1615 86.0581 12.1615C87.6459 12.1615 88.8398 12.5892 89.6399 13.4447C90.4399 14.3001 90.84 15.5248 90.84 17.1187V18.2819H83.7595C83.7903 18.7619 83.8918 19.165 84.0642 19.4912C84.2365 19.8112 84.4642 20.0666 84.7473 20.2574C85.0242 20.4482 85.3473 20.5866 85.7166 20.6728C86.0858 20.7528 86.4889 20.7928 86.9259 20.7928C87.3013 20.7928 87.6705 20.7528 88.0336 20.6728C88.3967 20.5866 88.7291 20.4759 89.0306 20.3405C89.2952 20.2235 89.5383 20.0974 89.7599 19.962C89.9876 19.8266 90.1722 19.7066 90.3138 19.602H90.6553V22.2698C90.3907 22.3744 90.1476 22.4729 89.9261 22.5652C89.7107 22.6514 89.4122 22.7406 89.0306 22.8329C88.6798 22.9252 88.3167 22.996 87.9413 23.0452C87.5721 23.1006 87.1197 23.1283 86.5843 23.1283ZM87.6552 16.3341C87.6367 15.6509 87.4767 15.1309 87.1751 14.774C86.8797 14.417 86.4243 14.2386 85.8089 14.2386C85.1812 14.2386 84.6888 14.4263 84.3319 14.8017C83.9811 15.1771 83.7872 15.6879 83.7503 16.3341H87.6552Z" fill="#090909"/>
<path d="M101.89 11.7276H96.1203V14.3216H101.428V16.9433H96.1203V22.8514H92.6862V9.10594H101.89V11.7276Z" fill="#090909"/>
<path d="M110.447 15.5402H110.18C110.057 15.4971 109.878 15.4663 109.644 15.4479C109.41 15.4232 109.152 15.4109 108.869 15.4109C108.53 15.4109 108.173 15.4602 107.798 15.5586C107.429 15.6571 107.069 15.774 106.718 15.9094V22.8514H103.487V12.4846H106.718V13.9708C106.866 13.8355 107.069 13.6662 107.327 13.4631C107.592 13.2539 107.832 13.0877 108.047 12.9646C108.281 12.8231 108.552 12.7031 108.86 12.6046C109.173 12.5 109.469 12.4477 109.746 12.4477C109.85 12.4477 109.967 12.4508 110.097 12.4569C110.226 12.4631 110.343 12.4723 110.447 12.4846V15.5402Z" fill="#090909"/>
<path d="M121.636 17.6726C121.636 19.3773 121.168 20.722 120.233 21.7067C119.303 22.6852 117.986 23.1745 116.282 23.1745C114.589 23.1745 113.272 22.6852 112.33 21.7067C111.395 20.722 110.927 19.3773 110.927 17.6726C110.927 15.9494 111.395 14.6017 112.33 13.6293C113.272 12.6508 114.589 12.1615 116.282 12.1615C117.98 12.1615 119.297 12.6538 120.233 13.6385C121.168 14.617 121.636 15.9617 121.636 17.6726ZM118.322 17.6911C118.322 17.0757 118.269 16.5649 118.165 16.1587C118.066 15.7463 117.928 15.4171 117.749 15.1709C117.559 14.9124 117.343 14.734 117.103 14.6355C116.863 14.5309 116.589 14.4786 116.282 14.4786C115.992 14.4786 115.731 14.5247 115.497 14.617C115.263 14.7032 115.048 14.8724 114.851 15.1248C114.666 15.3648 114.518 15.694 114.408 16.1125C114.297 16.531 114.241 17.0572 114.241 17.6911C114.241 18.325 114.294 18.8388 114.398 19.2327C114.503 19.6204 114.638 19.9312 114.804 20.1651C114.977 20.4051 115.192 20.5805 115.451 20.6913C115.709 20.802 115.995 20.8574 116.309 20.8574C116.568 20.8574 116.829 20.802 117.094 20.6913C117.365 20.5805 117.58 20.4143 117.74 20.1928C117.931 19.9281 118.075 19.6112 118.174 19.2419C118.272 18.8665 118.322 18.3496 118.322 17.6911Z" fill="#090909"/>
<path d="M133.064 22.8514H129.815V17.7095C129.815 17.291 129.796 16.8756 129.759 16.4633C129.728 16.0448 129.667 15.7371 129.575 15.5402C129.464 15.3063 129.304 15.1401 129.095 15.0417C128.885 14.9371 128.605 14.8847 128.255 14.8847C127.99 14.8847 127.722 14.934 127.451 15.0324C127.181 15.1309 126.891 15.2878 126.584 15.5032V22.8514H123.353V12.4846H126.584V13.6293C127.113 13.18 127.627 12.8292 128.125 12.5769C128.63 12.3246 129.187 12.1984 129.796 12.1984C130.855 12.1984 131.664 12.5338 132.224 13.2046C132.784 13.8693 133.064 14.8355 133.064 16.1033V22.8514Z" fill="#090909"/>
<path d="M139.434 23.0545C138.117 23.0545 137.157 22.7837 136.554 22.2421C135.957 21.7005 135.658 20.8143 135.658 19.5835V14.737H134.421V12.4846H135.658V9.52135H138.889V12.4846H142V14.737H138.889V18.4111C138.889 18.7742 138.892 19.0912 138.898 19.3619C138.904 19.6327 138.954 19.8758 139.046 20.0912C139.132 20.3066 139.283 20.4789 139.498 20.6082C139.72 20.7313 140.04 20.7928 140.458 20.7928C140.631 20.7928 140.855 20.7559 141.132 20.682C141.415 20.6082 141.612 20.5405 141.723 20.4789H142V22.7591C141.649 22.8514 141.277 22.9222 140.883 22.9714C140.489 23.0268 140.006 23.0545 139.434 23.0545Z" fill="#090909"/>
<defs>
<clipPath id="clip0_230_7174">
<rect x="2.3999" y="2.46924" width="27.6" height="27.6" rx="2.76" fill="white"/>
</clipPath>
<clipPath id="clip1_230_7174">
<rect x="15.0142" y="-3.64502" width="27.6" height="27.6" rx="3.45" transform="rotate(43.6048 15.0142 -3.64502)" fill="white"/>
</clipPath>
</defs>
</svg>
